<svg width="80" height="81" viewBox="0 0 80 81" fill="none" xmlns="http://www.w3.org/2000/svg">
<circle cx="40" cy="40.1641" r="40" fill="#FFEED2"/>
<g clip-path="url(#clip0_1440_774)">
<path d="M49.933 24.5269C48.1508 24.4503 46.3662 24.6055 44.624 24.9884C42.5425 25.4413 40.3989 25.5356 38.2856 25.2671C37.1221 25.1246 36.1905 24.9161 35.546 24.7204C33.2531 24.1355 29.9946 24.2461 29.1544 25.5925C28.5355 26.5879 28.6163 27.2664 29.2097 28.1428C29.3433 28.3401 29.4942 28.5252 29.6606 28.6958C30.1958 29.1237 30.7227 29.562 31.241 30.0103C32.5387 31.1279 33.7829 32.3062 34.9696 33.5411C36.1886 34.7958 37.3099 36.1419 38.3239 37.5675L38.4004 37.6802C39.9787 40.1028 41.7143 39.9497 42.6587 38.3544C43.2539 37.3546 43.9335 36.4075 44.69 35.5234C45.562 34.4982 46.4554 33.6304 47.4657 32.7647C47.7273 32.5414 48.5356 31.8714 48.342 32.033C48.3505 32.0267 48.3782 32.0011 48.2335 32.184C48.442 31.9288 50.2542 30.3187 50.7859 29.7125C51.8813 28.4725 52.3237 27.4153 52.1578 26.5645C52.0047 25.7648 51.692 25.316 51.2007 24.9799C50.8901 24.7725 50.544 24.624 50.1797 24.5418L49.933 24.5269ZM34.8356 40.0029C31.9089 35.8127 26.8977 31.9352 26.8977 31.9352C26.8977 31.9352 22.5097 28.2172 25.5428 23.3464C28.5759 18.4756 36.7159 20.6281 36.7159 20.6281C36.7159 20.6281 39.9489 21.6703 43.7052 20.8366C47.4593 19.9964 50.6945 20.3154 50.6945 20.3154C50.6945 20.3154 55.3866 20.8366 56.3352 25.7584C57.2839 30.6803 51.9536 34.3515 51.5325 34.8704C51.1177 35.3958 48.3165 37.1527 46.3171 40.524C44.3177 43.8974 38.6961 45.9265 34.8356 40.0029ZM23.0542 43.0232C23.0542 42.049 22.6501 37.9333 26.3574 37.8504C30.0626 37.7695 30.22 40.3559 30.22 42.2107C30.22 44.1526 29.8202 46.9007 26.8381 46.9007C23.8603 46.9007 23.0542 43.9888 23.0542 43.0211L23.0542 43.0232ZM34.6038 48.9298C37.1136 49.2532 37.6815 51.529 37.439 53.807C37.2349 55.6682 35.0079 58.5268 33.2255 58.1163C31.4452 57.7122 29.8223 55.3512 30.1498 53.3221C30.471 51.2866 32.0875 48.6044 34.6038 48.9298ZM45.2728 49.7105C47.102 49.7105 48.5909 51.8226 48.5909 54.4324C48.5909 57.0422 47.1041 59.1543 45.2728 59.1543C43.4372 59.1543 41.9546 57.0422 41.9546 54.4324C41.9546 51.8226 43.4372 49.7105 45.2728 49.7105ZM53.3404 39.9986C56.9457 39.2223 58.2878 43.3954 57.8922 45.348C57.8922 45.348 57.4668 49.5743 54.5401 49.8359C52.2153 50.038 50.503 47.4941 50.3265 46.0393C50.218 45.0949 49.7245 40.775 53.3404 39.9986Z" fill="#FF7B22"/>
</g>
<defs>
<clipPath id="clip0_1440_774">
<rect width="39" height="39" fill="white" transform="translate(60 20.1641) rotate(90)"/>
</clipPath>
</defs>
</svg>
