<svg width="226" height="45" viewBox="0 0 226 45" fill="none" xmlns="http://www.w3.org/2000/svg">
<path d="M0.626598 44.1641V0.527698H18.0982C21.3084 0.527698 23.986 1.00355 26.1309 1.95526C28.2757 2.90696 29.888 4.22798 30.9675 5.91832C32.0471 7.59446 32.5868 9.52628 32.5868 11.7138C32.5868 13.4183 32.2459 14.9169 31.5641 16.2095C30.8823 17.4879 29.9448 18.5391 28.7516 19.3629C27.5726 20.1726 26.2232 20.7479 24.7033 21.0888V21.5149C26.3652 21.5859 27.9206 22.0547 29.3695 22.9212C30.8326 23.7876 32.0186 25.0021 32.9277 26.5646C33.8368 28.1129 34.2914 29.9595 34.2914 32.1044C34.2914 34.4197 33.7161 36.4865 32.5655 38.3047C31.4292 40.1087 29.7459 41.5362 27.5158 42.5874C25.2857 43.6385 22.5371 44.1641 19.2701 44.1641H0.626598ZM9.85245 36.6214H17.3738C19.9448 36.6214 21.8198 36.1314 22.9988 35.1513C24.1777 34.157 24.7672 32.8359 24.7672 31.1882C24.7672 29.9808 24.476 28.9155 23.8936 27.9922C23.3113 27.0689 22.4803 26.3445 21.4007 25.8189C20.3354 25.2933 19.0641 25.0305 17.5868 25.0305H9.85245V36.6214ZM9.85245 18.7876H16.6919C17.9561 18.7876 19.0783 18.5675 20.0584 18.1271C21.0527 17.6726 21.834 17.0334 22.4022 16.2095C22.9846 15.3857 23.2757 14.3984 23.2757 13.2479C23.2757 11.6712 22.7147 10.3999 21.5925 9.43395C20.4846 8.46804 18.9078 7.98508 16.8624 7.98508H9.85245V18.7876ZM40.1241 44.1641V11.4368H48.9238V17.147H49.2647C49.8613 15.1158 50.8627 13.5817 52.269 12.5447C53.6752 11.4936 55.2946 10.968 57.127 10.968C57.5815 10.968 58.0716 10.9964 58.5971 11.0533C59.1227 11.1101 59.5843 11.1882 59.9821 11.2876V19.3416C59.5559 19.2138 58.9664 19.1001 58.2136 19.0007C57.4608 18.9013 56.7718 18.8516 56.1468 18.8516C54.8116 18.8516 53.6184 19.1428 52.5673 19.7251C51.5304 20.2933 50.7065 21.0888 50.0957 22.1115C49.4991 23.1342 49.2008 24.3132 49.2008 25.6484V44.1641H40.1241ZM73.0698 44.782C70.9817 44.782 69.1209 44.4197 67.4874 43.6953C65.8539 42.9567 64.5613 41.87 63.6096 40.4354C62.6721 38.9865 62.2033 37.1825 62.2033 35.0234C62.2033 33.2053 62.5371 31.6783 63.2047 30.4425C63.8723 29.2067 64.7814 28.2124 65.932 27.4595C67.0826 26.7067 68.3894 26.1385 69.8525 25.755C71.3297 25.3714 72.878 25.1016 74.4973 24.9453C76.4007 24.7464 77.9348 24.5618 79.0996 24.3913C80.2644 24.2067 81.1096 23.9368 81.6351 23.5817C82.1607 23.2266 82.4235 22.701 82.4235 22.005V21.8771C82.4235 20.5277 81.9973 19.4837 81.1451 18.745C80.307 18.0064 79.1138 17.6371 77.5655 17.6371C75.932 17.6371 74.6323 17.9993 73.6664 18.7237C72.7005 19.4339 72.0613 20.3288 71.7488 21.4084L63.3539 20.7266C63.78 18.7379 64.6181 17.0192 65.8681 15.5703C67.1181 14.1072 68.7303 12.9851 70.7047 12.2038C72.6934 11.4084 74.9945 11.0107 77.6081 11.0107C79.4263 11.0107 81.1664 11.2237 82.8283 11.6499C84.5044 12.076 85.9888 12.7365 87.2814 13.6314C88.5882 14.5263 89.6181 15.6768 90.3709 17.0831C91.1238 18.4751 91.5002 20.1442 91.5002 22.0902V44.1641H82.8922V39.6257H82.6365C82.111 40.6484 81.4078 41.5504 80.5272 42.3317C79.6465 43.0987 78.5882 43.7024 77.3525 44.1428C76.1167 44.5689 74.6891 44.782 73.0698 44.782ZM75.6692 38.5178C77.0044 38.5178 78.1834 38.255 79.2061 37.7294C80.2289 37.1896 81.0314 36.4652 81.6138 35.5561C82.1962 34.647 82.4874 33.6172 82.4874 32.4666V28.9936C82.2033 29.1783 81.8127 29.3487 81.3155 29.505C80.8326 29.647 80.2857 29.782 79.6749 29.9098C79.0641 30.0234 78.4533 30.13 77.8425 30.2294C77.2317 30.3146 76.6777 30.3928 76.1806 30.4638C75.1152 30.62 74.1848 30.8686 73.3894 31.2095C72.5939 31.5504 71.976 32.0121 71.5357 32.5945C71.0953 33.1626 70.8752 33.8729 70.8752 34.7251C70.8752 35.9609 71.3226 36.9055 72.2175 37.5589C73.1266 38.1982 74.2772 38.5178 75.6692 38.5178ZM107.619 25.2436V44.1641H98.5421V11.4368H107.193V17.2109H107.576C108.301 15.3075 109.515 13.8018 111.22 12.6939C112.924 11.5717 114.991 11.0107 117.42 11.0107C119.693 11.0107 121.674 11.5078 123.365 12.5021C125.055 13.4964 126.369 14.9169 127.306 16.7635C128.244 18.5959 128.713 20.7834 128.713 23.326V44.1641H119.636V24.9453C119.65 22.9425 119.139 21.38 118.102 20.2578C117.065 19.1214 115.637 18.5533 113.819 18.5533C112.597 18.5533 111.518 18.8161 110.58 19.3416C109.657 19.8672 108.933 20.6342 108.407 21.6428C107.896 22.6371 107.633 23.8374 107.619 25.2436ZM147.926 44.6967C145.44 44.6967 143.189 44.0575 141.172 42.7791C139.169 41.4865 137.578 39.5902 136.399 37.0902C135.234 34.576 134.652 31.4936 134.652 27.843C134.652 24.093 135.256 20.9751 136.463 18.4893C137.67 15.9893 139.275 14.1214 141.278 12.8857C143.295 11.6357 145.504 11.0107 147.905 11.0107C149.737 11.0107 151.264 11.3232 152.486 11.9482C153.721 12.5589 154.716 13.326 155.469 14.2493C156.236 15.1584 156.818 16.0533 157.216 16.9339H157.493V0.527698H166.548V44.1641H157.599V38.9226H157.216C156.79 39.8317 156.186 40.7337 155.405 41.6286C154.638 42.5092 153.636 43.2408 152.4 43.8232C151.179 44.4055 149.687 44.6967 147.926 44.6967ZM150.802 37.4737C152.265 37.4737 153.501 37.076 154.51 36.2805C155.532 35.4709 156.314 34.3416 156.854 32.8928C157.407 31.4439 157.684 29.7464 157.684 27.8004C157.684 25.8544 157.415 24.1641 156.875 22.7294C156.335 21.2947 155.554 20.1868 154.531 19.4055C153.508 18.6243 152.265 18.2337 150.802 18.2337C149.311 18.2337 148.054 18.6385 147.031 19.4482C146.008 20.2578 145.234 21.38 144.709 22.8146C144.183 24.2493 143.92 25.9112 143.92 27.8004C143.92 29.7038 144.183 31.3871 144.709 32.8501C145.248 34.299 146.023 35.4354 147.031 36.2592C148.054 37.0689 149.311 37.4737 150.802 37.4737ZM196.719 0.527698L205.518 15.3999H205.859L214.702 0.527698H225.121L211.804 22.3459L225.419 44.1641H214.808L205.859 29.2706H205.518L196.569 44.1641H186.001L199.659 22.3459L186.257 0.527698H196.719Z" fill="#525252"/>
</svg>
