<svg width="194" height="36" viewBox="0 0 194 36" fill="none" xmlns="http://www.w3.org/2000/svg">
<g clip-path="url(#clip0_227_116)">
<path d="M15 24.1309L5.73031 29.3197L7.80031 18.9L0 11.6872L10.5498 10.436L15 0.789062L19.4502 10.436L30 11.6872L22.1997 18.9L24.2697 29.3197L15 24.1309Z" fill="#7A1A06"/>
</g>
<g clip-path="url(#clip1_227_116)">
<path d="M49 24.1309L39.7303 29.3197L41.8003 18.9L34 11.6872L44.5498 10.436L49 0.789062L53.4502 10.436L64 11.6872L56.1997 18.9L58.2697 29.3197L49 24.1309Z" fill="#7A1A06"/>
</g>
<g clip-path="url(#clip2_227_116)">
<path d="M83 24.1309L73.7303 29.3197L75.8003 18.9L68 11.6872L78.5498 10.436L83 0.789062L87.4502 10.436L98 11.6872L90.1997 18.9L92.2697 29.3197L83 24.1309Z" fill="#7A1A06"/>
</g>
<g clip-path="url(#clip3_227_116)">
<path d="M117 24.1309L107.73 29.3197L109.8 18.9L102 11.6872L112.55 10.436L117 0.789062L121.45 10.436L132 11.6872L124.2 18.9L126.27 29.3197L117 24.1309Z" fill="#7A1A06"/>
</g>
<g clip-path="url(#clip4_227_116)">
<path d="M151 24.1309L141.73 29.3197L143.8 18.9L136 11.6872L146.55 10.436L151 0.789062L155.45 10.436L166 11.6872L158.2 18.9L160.27 29.3197L151 24.1309Z" fill="#7A1A06"/>
</g>
<defs>
<clipPath id="clip0_227_116">
<rect width="30" height="30" fill="white" transform="translate(0 0.164062)"/>
</clipPath>
<clipPath id="clip1_227_116">
<rect width="30" height="30" fill="white" transform="translate(34 0.164062)"/>
</clipPath>
<clipPath id="clip2_227_116">
<rect width="30" height="30" fill="white" transform="translate(68 0.164062)"/>
</clipPath>
<clipPath id="clip3_227_116">
<rect width="30" height="30" fill="white" transform="translate(102 0.164062)"/>
</clipPath>
<clipPath id="clip4_227_116">
<rect width="30" height="30" fill="white" transform="translate(136 0.164062)"/>
</clipPath>
</defs>
</svg>
