<svg width="20" height="20" viewBox="0 0 20 20" fill="none" xmlns="http://www.w3.org/2000/svg">
<g clip-path="url(#clip0_1404_529)">
<path d="M2.23722 5.16262C2.19797 6.07655 2.27754 6.99172 2.47392 7.88517C2.70617 8.95263 2.7545 10.0519 2.61681 11.1356C2.54373 11.7323 2.43684 12.21 2.33648 12.5405C2.03653 13.7164 2.09324 15.3874 2.7837 15.8183C3.29418 16.1357 3.64213 16.0943 4.09152 15.7899C4.19274 15.7214 4.28765 15.644 4.37512 15.5587C4.59458 15.2842 4.81932 15.014 5.04922 14.7483C5.62239 14.0828 6.22661 13.4447 6.85988 12.8361C7.50336 12.211 8.19364 11.636 8.9247 11.116L8.98251 11.0767C10.2249 10.2674 10.1464 9.37733 9.32828 8.89303C8.81556 8.58779 8.32986 8.23929 7.87648 7.85135C7.35073 7.40414 6.9057 6.94602 6.46176 6.4279C6.34723 6.29374 6.00363 5.87925 6.08653 5.97851C6.08326 5.97415 6.07017 5.95997 6.16398 6.03414C6.03308 5.92724 5.20738 4.99791 4.89651 4.72522C4.26059 4.16348 3.71848 3.9366 3.28218 4.02168C2.87205 4.10021 2.6419 4.26055 2.46956 4.51252C2.36319 4.67179 2.28703 4.84927 2.24486 5.03609L2.23722 5.16262ZM10.1736 12.9049C8.02482 14.4058 6.03636 16.9756 6.03636 16.9756C6.03636 16.9756 4.1297 19.2258 1.63185 17.6704C-0.866 16.115 0.237852 11.9406 0.237852 11.9406C0.237852 11.9406 0.772329 10.2827 0.344749 8.35638C-0.0861037 6.43118 0.0775107 4.77212 0.0775107 4.77212C0.0775107 4.77212 0.344747 2.3659 2.86878 1.87942C5.39281 1.39293 7.27547 4.12639 7.54161 4.34236C7.81103 4.55506 8.712 5.9916 10.4409 7.01692C12.1708 8.04224 13.2114 10.9251 10.1736 12.9049ZM11.7225 18.9466C11.2229 18.9466 9.11231 19.1539 9.06977 17.2527C9.02833 15.3525 10.3547 15.2718 11.3058 15.2718C12.3017 15.2718 13.711 15.4769 13.711 17.0061C13.711 18.5332 12.2177 18.9466 11.7214 18.9466L11.7225 18.9466ZM14.7516 13.0238C14.9174 11.7367 16.0845 11.4454 17.2527 11.5698C18.2071 11.6745 19.6731 12.8165 19.4626 13.7306C19.2553 14.6435 18.0446 15.4758 17.004 15.3078C15.9601 15.1431 14.5847 14.3141 14.7516 13.0238ZM15.1519 7.55248C15.1519 6.61442 16.235 5.85089 17.5734 5.85089C18.9117 5.85089 19.9949 6.61333 19.9949 7.55248C19.9949 8.49381 18.9117 9.25408 17.5734 9.25407C16.235 9.25407 15.1519 8.49381 15.1519 7.55248ZM10.1714 3.41521C9.77332 1.56637 11.9134 0.878094 12.9147 1.08098C12.9147 1.08098 15.0821 1.29913 15.2162 2.80002C15.3199 3.99223 14.0153 4.87029 13.2692 4.96083C12.7849 5.01645 10.5696 5.26951 10.1714 3.41521Z" fill="#FF7B22"/>
</g>
<defs>
<clipPath id="clip0_1404_529">
<rect width="20" height="20" fill="white"/>
</clipPath>
</defs>
</svg>
