<svg width="16" height="16" viewBox="0 0 16 16" fill="none" xmlns="http://www.w3.org/2000/svg">
<g clip-path="url(#clip0_1404_759)">
<path d="M7.936 1.52588e-05C9.42121 1.52588e-05 10.8456 0.590014 11.8958 1.64022C12.946 2.69042 13.536 4.1148 13.536 5.60002H14.3952C14.5967 5.60002 14.7908 5.67607 14.9387 5.81296C15.0865 5.94986 15.1773 6.13751 15.1928 6.33842L15.8696 15.1384C15.8859 15.35 15.8176 15.5593 15.6795 15.7204C15.5415 15.8816 15.3451 15.9813 15.1336 15.9976L15.072 16H0.8C0.587827 16 0.384344 15.9157 0.234315 15.7657C0.0842856 15.6157 0 15.4122 0 15.2L0.00240002 15.1384L0.6792 6.33842C0.694716 6.13751 0.785478 5.94986 0.933345 5.81296C1.08121 5.67607 1.27529 5.60002 1.4768 5.60002H2.336C2.336 4.1148 2.926 2.69042 3.9762 1.64022C5.02641 0.590014 6.45079 1.52588e-05 7.936 1.52588e-05ZM13.6536 7.20002H2.2176L1.6632 14.4H14.208L13.6536 7.20002ZM9.536 8.80002V10.4H6.336V8.80002H9.536ZM7.936 1.60002C6.90523 1.60008 5.91427 1.99805 5.16978 2.71094C4.42529 3.42384 3.98474 4.39662 3.94 5.42642L3.936 5.60002H11.936C11.9359 4.56924 11.538 3.57829 10.8251 2.83379C10.1122 2.0893 9.1394 1.64875 8.1096 1.60402L7.936 1.60002Z" fill="white"/>
</g>
<defs>
<clipPath id="clip0_1404_759">
<rect width="16" height="16" fill="white"/>
</clipPath>
</defs>
</svg>
