<svg width="126" height="39" viewBox="0 0 126 39" fill="none" xmlns="http://www.w3.org/2000/svg">
<path d="M19.4657 0.0829468C9.02342 0.0829468 0.719971 8.60879 0.719971 18.9942C0.719971 29.4934 9.02342 38.0213 19.4657 38.0213C29.9631 38.0213 38.1552 29.4949 38.1552 18.9975C38.1569 8.6121 29.9631 0.0829468 19.4657 0.0829468ZM19.4657 8.11022C27.9919 8.11022 34.238 13.5249 36.8774 18.9975C34.238 24.5537 27.9919 29.994 19.4657 29.994C10.8844 29.994 4.68835 24.5519 2.05068 18.9975C4.68835 13.5266 10.8861 8.11353 19.4657 8.11353V8.11022V8.11022ZM19.4657 8.97087C13.9113 8.97087 9.3828 13.4665 9.3828 18.9942C9.3828 24.6055 13.9113 29.0771 19.4657 29.0771C25.0201 29.0771 29.489 24.6052 29.489 18.9975C29.489 13.4698 25.0201 8.97087 19.4657 8.97087Z" fill="#A3A3A3"/>
<path d="M56.0766 2.33392C46.2724 2.33392 39.4395 9.77636 39.4395 18.8287V18.938C39.4395 28.1023 46.4116 35.3533 55.8283 35.3533C61.9657 35.3533 65.6327 33.1581 68.9103 29.6299L64.4382 25.1347C61.9374 27.4098 59.6852 28.8851 56.0468 28.8851C50.5759 28.8851 46.7716 24.2978 46.7716 18.8287V18.746C46.7716 13.2751 50.6595 8.80208 56.0468 8.80208C59.2408 8.80208 61.7407 10.1633 64.2131 12.4135L68.6852 7.24628C65.7134 4.33133 62.1038 2.33392 56.0766 2.33392Z" fill="#A3A3A3"/>
<path d="M71.5552 2.88672V34.7939H86.7457C93.9372 34.7939 98.6857 31.8815 98.6857 26.0516V25.939C98.6857 21.6626 96.4111 19.5219 92.7141 18.1071C94.9927 16.8309 96.9081 14.8318 96.9081 11.2218V11.1391C96.9081 8.9422 96.1851 7.16548 94.7134 5.69378C92.8827 3.88971 90.0218 2.88672 86.3816 2.88672H71.5552ZM78.3841 9.02385H85.329C88.3008 9.02385 89.9368 10.2178 89.9368 12.301V12.4135C89.9368 14.7739 87.9661 15.7734 84.8556 15.7734L78.3841 15.7767V9.02385V9.02385ZM78.3841 21.6093H86.524C90.1037 21.6093 91.7144 22.9435 91.7144 25.0817V25.1909C91.7144 27.5513 89.8278 28.6336 86.7457 28.6336L78.3841 28.6369V21.6093V21.6093Z" fill="#A3A3A3"/>
<path d="M112.453 2.41663C105.955 2.41663 101.291 6.24788 101.291 12.0494V12.1354C101.291 18.4701 105.454 20.2485 111.87 21.8873C117.203 23.2737 118.312 24.1616 118.312 25.939V26.0516C118.312 27.9107 116.561 29.0506 113.701 29.0506C110.034 29.0506 107.036 27.548 104.174 25.1876L100.01 30.1595C103.842 33.5757 108.729 35.244 113.562 35.244V35.2407C120.449 35.2407 125.28 31.684 125.28 25.3564V25.2737C125.28 19.6926 121.616 17.3827 115.144 15.6906C109.647 14.2722 108.256 13.5797 108.256 11.4965V11.4138C108.256 9.85855 109.672 8.61004 112.367 8.61004C115.061 8.61004 117.839 9.80192 120.672 11.7713L124.31 6.47164C121.088 3.88906 117.119 2.41663 112.453 2.41663Z" fill="#A3A3A3"/>
</svg>
