<svg width="98" height="42" viewBox="0 0 98 42" fill="none" xmlns="http://www.w3.org/2000/svg">
<path fill-rule="evenodd" clip-rule="evenodd" d="M26.1165 21.0635C26.097 18.4276 26.5947 15.8137 27.5812 13.3715C28.5676 10.9293 30.0234 8.70675 31.8653 6.83109C33.7071 4.95542 35.8988 3.4635 38.3148 2.44074C40.7308 1.41797 43.3237 0.884457 45.945 0.870737C56.8749 0.870737 65.7077 9.90171 65.7077 21.0635C65.7077 32.2252 56.8913 41.2507 45.945 41.2507C43.3231 41.2406 40.729 40.7098 38.3117 39.6886C35.8944 38.6675 33.7016 37.1762 31.8591 35.3004C30.0166 33.4246 28.5608 31.2012 27.5754 28.758C26.5899 26.3148 26.0941 23.6999 26.1165 21.0635ZM0.76001 41.88V0.119995H25.6609L26.4075 11.5743H12.4803V17.0503H23.8713V28.3335H12.4803V41.88H0.76001ZM97.24 41.753L84.7511 20.1858L96.1586 0.2856H83.5654L78.493 9.15097L73.3382 0.2856H60.4925L72.0207 20.3072L59.7459 41.753H72.3391L78.2844 31.3862L84.323 41.753H97.24ZM49.3541 29.3382V12.7777C49.3695 12.3136 49.2933 11.8511 49.1299 11.4167C48.9665 10.9824 48.7192 10.5849 48.4023 10.2472C48.0853 9.90954 47.705 9.63831 47.2833 9.4492C46.8615 9.2601 46.4067 9.15686 45.945 9.14545C44.1554 9.14545 42.6183 10.8015 42.6183 12.7777V29.3382C42.6267 30.2264 42.9787 31.0764 43.5997 31.7081C44.2207 32.3397 45.0619 32.7034 45.945 32.722C46.3953 32.7462 46.8456 32.6756 47.2672 32.5147C47.6888 32.3538 48.0723 32.1062 48.3932 31.7876C48.7141 31.4691 48.9653 31.0867 49.1308 30.6649C49.2963 30.2431 49.3723 29.7912 49.3541 29.3382Z" fill="#A3A3A3"/>
</svg>
