<svg width="98" height="96" viewBox="0 0 98 96" fill="none" xmlns="http://www.w3.org/2000/svg">
<path d="M48.875 7.71455C47.3669 3.9497 43.6934 -0.116302 36.8138 0.442192C28.05 1.39496 25.3189 9.79368 26.6431 14.8043C23.1528 12.4407 17.2174 11.4013 12.0368 15.8389C5.34798 22.5441 8.92575 31.6118 12.6028 33.7869C8.55024 33.4116 2.14555 36.15 0.728595 43.313C-0.778742 52.2067 6.00112 57.3914 12.6028 57.3914H85.8092C93.4432 57.3914 97.6791 50.7872 97.2038 44.5588C96.4547 36.43 89.0162 33.3111 84.9587 33.9793C88.3487 32.0881 92.8765 23.2035 85.992 16.219C80.5273 11.0212 73.5605 12.9122 71.111 15.1794C72.4316 10.8372 70.2663 1.86119 61.4025 0.441339C60.7903 0.372785 60.2005 0.336121 59.6382 0.336121C52.8718 0.336803 49.8297 5.28276 48.875 7.71455Z" fill="white"/>
<path d="M13.2561 17.2542C9.39103 20.753 7.98431 28.6807 14.9518 33.3151L42.7474 52.3849L29.27 21.5084C26.446 14.2223 18.7202 12.6334 13.2561 17.2542Z" fill="#A3A3A3"/>
<path d="M37.1828 2.242C32.6647 2.33392 25.8804 7.71439 28.8997 15.9303L42.8383 48.804L47.7365 14.2272C48.8701 5.6356 42.3682 1.66952 37.1828 2.242Z" fill="#A3A3A3"/>
<path d="M49.9122 12.9087H52.5478C52.5478 12.9087 53.9554 12.9087 54.1469 13.5725C53.1097 14.4196 50.2862 14.5257 50.661 19.0502L55.0921 48.7996L68.936 15.8394C71.7677 8.4801 65.8238 2.33394 60.5512 2.14601C60.3052 2.12828 60.0579 2.11395 59.8024 2.11395C55.0698 2.11378 49.6467 5.55308 49.9122 12.9087Z" fill="#A3A3A3"/>
<path d="M68.3788 21.7882L55.2844 52.2941L83.0722 33.1237C89.4776 28.5804 88.4443 21.3167 84.8589 17.7265C83.3558 16.0367 80.5959 14.7313 77.6721 14.7313C74.2181 14.7308 70.5215 16.5628 68.3788 21.7882Z" fill="#A3A3A3"/>
<path d="M79.9608 37.4645L53.8647 55.6922H85.9962C92.5883 55.6922 96.8246 48.8949 94.9414 42.6577C93.6802 38.7373 89.9484 35.6597 85.6171 35.6553C83.7939 35.6561 81.8604 36.2052 79.9608 37.4645Z" fill="#A3A3A3"/>
<path d="M12.5074 55.6922H44.1647L18.0623 37.4645C12.0323 33.59 5.25142 35.857 2.8036 42.2864C0.728727 49.6466 5.90933 55.6922 12.5074 55.6922Z" fill="#A3A3A3"/>
<path d="M47.5665 80.6313H53.4393C54.7892 80.7163 57.1823 81.895 57.1823 84.6864C57.1823 87.6061 54.6987 88.7842 53.353 88.9172H47.5665V80.6313ZM47.477 67.6332H52.3109C53.9632 67.7224 55.917 68.9434 55.917 71.2103C55.917 73.4338 54.4398 74.9158 52.5287 75.1799H47.477V67.6332ZM40.8682 62.2241V94.3208H56.4419C60.1383 94.3208 64.5324 90.616 64.5324 85.7749C64.5324 80.717 61.228 78.2328 59.1373 77.229C59.1373 77.229 62.9656 75.0053 62.7954 70.2069C62.6213 63.7522 56.6586 62.2241 54.6144 62.2241H40.8682Z" fill="#A3A3A3"/>
<path d="M16.981 94.3209V75.8341L37.1669 95.5419V62.2241H30.3838V80.2379L10.1931 60.9188V94.3209H16.981Z" fill="#A3A3A3"/>
<path d="M65.623 77.9248C65.7932 88.0751 73.0862 95.6638 82.4618 95.6638C84.6847 95.6638 87.0266 95.2431 89.42 94.3209V87.7809C87.5232 88.9401 85.4125 89.4989 83.3445 89.4989C77.6708 89.4989 72.3175 85.3005 72.539 77.6643C72.9213 71.4698 77.9925 67.1926 83.4577 67.1926C85.4591 67.1926 87.5176 67.7691 89.42 69.0287V62.6641C87.2017 61.7648 84.9967 61.3627 82.8728 61.3627C73.5208 61.3626 65.8026 69.2512 65.623 77.9248Z" fill="#A3A3A3"/>
</svg>
