<svg width="54" height="55" viewBox="0 0 54 55" fill="none" xmlns="http://www.w3.org/2000/svg">
<g clip-path="url(#clip0_227_150)">
<path d="M20.7438 15.181L27 21.4398L44.2105 4.22663C44.712 3.72494 45.3074 3.32697 45.9627 3.05544C46.6181 2.78392 47.3205 2.64417 48.0298 2.64417C48.7392 2.64417 49.4416 2.78392 50.0969 3.05544C50.7522 3.32697 51.3476 3.72494 51.8491 4.22663L53.7581 6.13561L20.7438 39.1471C21.7224 41.4547 21.8678 44.0308 21.1553 46.4339C20.4428 48.837 18.9166 50.9174 16.8384 52.3187C14.7601 53.7199 12.2592 54.3547 9.7643 54.1142C7.26937 53.8738 4.93575 52.773 3.16339 51.0007C1.39103 49.2283 0.290297 46.8947 0.049834 44.3998C-0.190629 41.9048 0.444153 39.4039 1.84539 37.3257C3.24662 35.2475 5.32706 33.7213 7.73014 33.0088C10.1332 32.2962 12.7093 32.4417 15.0169 33.4202L21.2758 27.1641L15.0169 20.9079C12.7093 21.8864 10.1332 22.0319 7.73014 21.3194C5.32706 20.6068 3.24662 19.0807 1.84539 17.0024C0.444153 14.9242 -0.190629 12.4233 0.049834 9.92837C0.290297 7.43343 1.39103 5.09981 3.16339 3.32745C4.93575 1.5551 7.26937 0.45436 9.7643 0.213897C12.2592 -0.0265668 14.7601 0.608216 16.8384 2.00945C18.9166 3.41069 20.4428 5.49113 21.1553 7.89421C21.8678 10.2973 21.7224 12.8734 20.7438 15.181ZM10.7993 16.3636C12.2316 16.3636 13.6051 15.7947 14.6179 14.7819C15.6306 13.7692 16.1996 12.3956 16.1996 10.9634C16.1996 9.53118 15.6306 8.15761 14.6179 7.14487C13.6051 6.13213 12.2316 5.56318 10.7993 5.56318C9.36711 5.56318 7.99355 6.13213 6.98081 7.14487C5.96807 8.15761 5.39912 9.53118 5.39912 10.9634C5.39912 12.3956 5.96807 13.7692 6.98081 14.7819C7.99355 15.7947 9.36711 16.3636 10.7993 16.3636ZM10.7993 48.7649C12.2316 48.7649 13.6051 48.196 14.6179 47.1833C15.6306 46.1705 16.1996 44.797 16.1996 43.3647C16.1996 41.9325 15.6306 40.5589 14.6179 39.5462C13.6051 38.5335 12.2316 37.9645 10.7993 37.9645C9.36711 37.9645 7.99355 38.5335 6.98081 39.5462C5.96807 40.5589 5.39912 41.9325 5.39912 43.3647C5.39912 44.797 5.96807 46.1705 6.98081 47.1833C7.99355 48.196 9.36711 48.7649 10.7993 48.7649ZM36.5449 30.9793L53.7581 48.1952L51.8491 50.1042C51.3476 50.6059 50.7522 51.0039 50.0969 51.2754C49.4416 51.5469 48.7392 51.6867 48.0298 51.6867C47.3205 51.6867 46.6181 51.5469 45.9627 51.2754C45.3074 51.0039 44.712 50.6059 44.2105 50.1042L30.818 36.709L36.5422 30.9793H36.5449Z" fill="#7F1D1D"/>
</g>
<defs>
<clipPath id="clip0_227_150">
<rect width="54" height="54" fill="white" transform="translate(0 0.164062)"/>
</clipPath>
</defs>
</svg>
