<svg width="92" height="92" viewBox="0 0 92 92" fill="none" xmlns="http://www.w3.org/2000/svg">
<path d="M45.9998 91.72C71.2502 91.72 91.7198 71.2505 91.7198 46C91.7198 20.7496 71.2502 0.280029 45.9998 0.280029C20.7493 0.280029 0.279785 20.7496 0.279785 46C0.279785 71.2505 20.7493 91.72 45.9998 91.72Z" fill="#A3A3A3"/>
<path d="M23.1428 54.9025C23.1085 53.5215 23.3488 52.1963 24.0111 50.9728C25.2669 48.6477 27.2637 47.4285 29.8541 47.1491C31.4905 46.9729 33.0997 47.1219 34.5915 47.8655C37.1948 49.1648 38.4993 51.3267 38.671 54.2063C38.6824 54.4054 38.6867 54.6031 38.6953 54.8022C38.5837 56.3781 38.0931 57.8107 37.1104 59.0514C35.9146 60.5685 34.3226 61.3966 32.4431 61.6903C30.4678 62.0012 28.5468 61.8078 26.786 60.8064C24.5131 59.5141 23.3946 57.4669 23.1428 54.9025ZM34.5086 54.4727C34.4986 54.2736 34.4943 54.0759 34.48 53.8768C34.3441 52.1247 33.0596 50.7952 31.346 50.6333C29.4508 50.4542 27.9675 51.4198 27.4654 53.1576C27.2897 53.7988 27.2483 54.4694 27.3438 55.1274C27.5326 56.5515 28.2364 57.6087 29.6453 58.0815C31.7623 58.7964 34.5386 57.7148 34.5086 54.4756V54.4727Z" fill="#FDFDFE"/>
<path d="M40.0479 54.7844C40.0479 52.4793 40.0694 50.1741 40.0479 47.869C40.0479 47.4599 40.1468 47.3458 40.564 47.353C42.3693 47.3801 44.176 47.3273 45.9798 47.3858C47.947 47.4499 49.7953 47.956 51.2851 49.3231C52.2441 50.2149 52.8814 51.3956 53.0989 52.6831C53.2265 53.3761 53.2951 54.0785 53.304 54.783C53.185 55.4416 53.1448 56.1102 52.9426 56.7559C52.121 59.3747 50.1853 60.6691 47.6129 61.2065C46.8994 61.3496 46.1728 61.4184 45.4449 61.4118C43.8046 61.4118 42.1642 61.4004 40.5239 61.4203C40.1568 61.4203 40.0507 61.3348 40.0536 60.9599C40.0679 58.9014 40.0522 56.85 40.0479 54.7844ZM44.2433 54.4023C44.2433 55.5428 44.2577 56.6747 44.2347 57.8094C44.2347 58.1672 44.3466 58.2556 44.6864 58.2371C45.1825 58.234 45.6779 58.2031 46.1705 58.1444C47.6646 57.9277 48.6726 57.0311 48.9837 55.6069C49.0968 55.0923 49.1355 54.5643 49.0984 54.0388C48.9636 52.1856 48.0144 51.0566 46.3196 50.7429C45.7634 50.6593 45.2017 50.6169 44.6391 50.6161C44.2935 50.6032 44.2333 50.7372 44.2376 51.0437C44.2534 52.1642 44.2433 53.2861 44.2433 54.4023Z" fill="#FDFDFE"/>
<path d="M55.5492 54.9013C55.7894 54.2996 56.0424 53.7008 56.2711 53.0933C56.7915 51.7086 57.3019 50.3195 57.8136 48.9318C57.9566 48.5317 58.1181 48.1344 58.2296 47.7241C58.3026 47.4535 58.4269 47.3498 58.7071 47.3527C59.9794 47.3628 61.2532 47.3671 62.527 47.3527C62.8229 47.3527 62.9072 47.4866 62.9959 47.7299C63.8812 50.1443 64.7738 52.5555 65.6735 54.9632C65.6962 55.0059 65.724 55.0455 65.7564 55.0813C66.1323 56.1321 66.504 57.1872 66.8886 58.2366C67.2469 59.2183 67.6148 60.1972 67.9922 61.1731C68.098 61.4481 68.0737 61.556 67.7463 61.5517C66.5722 61.5383 65.3985 61.5383 64.2253 61.5517C64.1289 61.5658 64.0309 61.5413 63.9523 61.4834C63.8737 61.4256 63.8208 61.339 63.805 61.2422C63.662 60.7816 63.5019 60.3281 63.359 59.869C63.2946 59.6602 63.216 59.5393 62.9544 59.5408C61.3676 59.5552 59.7807 59.5508 58.1939 59.5408C58.1056 59.5284 58.016 59.5518 57.9448 59.6057C57.8735 59.6597 57.8264 59.7398 57.8136 59.8287C57.6707 60.3066 57.5034 60.7758 57.3605 61.2523C57.3076 61.4308 57.2418 61.5402 57.0288 61.5402C55.7579 61.5402 54.4884 61.5402 53.1689 61.5402C53.9695 59.2989 54.7586 57.0994 55.5492 54.9013ZM60.5398 50.8147C60.4755 51.1213 60.4155 51.4293 60.3469 51.7359C60.0438 53.079 59.5606 54.3687 59.1632 55.683C58.9602 56.3509 58.9516 56.348 59.6206 56.3494H61.1045C62.2282 56.3494 62.221 56.3494 61.8965 55.2914C61.4405 53.8116 60.8872 52.3592 60.5398 50.8147Z" fill="#FDFDFE"/>
<path d="M69.9341 54.7827C69.0023 53.0585 67.9782 51.387 66.9729 49.7056C66.525 48.954 66.0943 48.1924 65.6133 47.3595C67.1141 47.3595 68.5241 47.3595 69.9341 47.3595C70.0983 47.3595 70.1674 47.4536 70.2308 47.5763C71.0763 49.2278 72.1032 50.788 72.8233 52.4994C72.9429 52.7846 73.0235 53.0699 73.1488 53.435C73.8474 51.2957 75.086 49.5187 76.0582 47.6048C76.0919 47.523 76.1516 47.4544 76.2283 47.4093C76.305 47.3643 76.3945 47.3453 76.4831 47.3552C77.8153 47.3667 79.1476 47.3552 80.4827 47.3552C80.5331 47.5791 80.3776 47.7089 80.2926 47.8558C79.0597 50.0046 77.823 52.1514 76.5825 54.2964C76.4917 54.4532 76.4183 54.6187 76.3362 54.7784C76.0323 55.2875 75.7341 55.7981 75.423 56.303C75.3441 56.4666 75.3146 56.6494 75.3381 56.8292C75.3381 58.2112 75.3265 59.5946 75.3381 60.9779C75.3381 61.3188 75.256 61.4257 74.906 61.42C73.7259 61.3972 72.5458 61.3972 71.3658 61.42C71.0057 61.4272 70.925 61.3116 70.9337 60.9751C70.9524 59.74 70.915 58.505 70.9524 57.2671C70.9879 56.7257 70.8399 56.1882 70.5318 55.7396C70.3216 55.4359 70.1372 55.105 69.9341 54.7827Z" fill="#FDFDFE"/>
<path d="M15.3052 54.7845C15.3052 53.5483 15.3052 52.312 15.3283 51.0771C15.3283 50.792 15.233 50.7164 14.9558 50.7207C13.9381 50.7349 12.9204 50.7207 11.9027 50.7321C11.5981 50.7321 11.5 50.6565 11.5072 50.3471C11.5289 49.4915 11.5274 48.636 11.5072 47.7804C11.5072 47.4724 11.5722 47.3527 11.9143 47.3527C15.5174 47.3641 19.121 47.3641 22.725 47.3527C23.0585 47.3527 23.1465 47.4525 23.1393 47.7705C23.1191 48.626 23.1191 49.4816 23.1393 50.3371C23.1465 50.6408 23.057 50.7321 22.7467 50.7278C21.729 50.7093 20.7113 50.7278 19.6936 50.715C19.4179 50.715 19.3183 50.7834 19.3226 51.0714C19.3413 52.3063 19.3399 53.5426 19.3442 54.7788C19.3442 56.8193 19.3226 58.8598 19.3442 60.9003C19.3442 61.3024 19.2562 61.4336 18.8289 61.4193C17.7967 61.3865 16.7632 61.3951 15.731 61.4193C15.3947 61.4264 15.3182 61.3152 15.3196 61.0015C15.3225 58.9311 15.3138 56.8578 15.3052 54.7845Z" fill="#FDFDFE"/>
<path d="M11.7799 35.6281V31.3554C11.8285 30.4608 11.8285 30.4608 12.7465 30.4608C13.6317 30.4608 14.5183 30.4851 15.4021 30.4508C15.8461 30.4336 16.0403 30.5524 15.9617 31.0104C15.9573 31.0928 15.9621 31.1754 15.976 31.2566V33.8332C15.976 35.6668 15.9546 37.5004 15.976 39.3326C15.9846 39.9781 16.0974 40.6309 16.6899 41.0503C17.9748 41.9563 19.8309 41.1934 20.015 39.626C20.2435 37.7022 20.0864 35.7612 20.0978 33.836V31.2538C20.1421 30.4579 20.1421 30.4579 20.9688 30.4579C22.0039 30.4579 23.039 30.4579 24.074 30.4579C24.2325 30.4579 24.4567 30.3678 24.4924 30.654V33.9334C24.411 36.1506 24.5809 38.3707 24.3924 40.5893C23.9641 42.7364 22.6064 43.9875 20.569 44.5586C18.9731 45.0044 17.2904 45.0359 15.6791 44.6502C13.2134 44.0777 11.8528 42.3757 11.7985 39.835C11.7671 38.4365 11.7799 37.0323 11.7799 35.6281Z" fill="#FDFDFE"/>
<path d="M46.5947 31.5516C46.7856 32.1933 47.0248 32.8198 47.3103 33.4257C47.5521 34.2377 47.8452 35.0337 48.1876 35.809L49.7776 40.1092C49.8577 40.3246 49.9379 40.5371 50.0195 40.7511C50.476 41.9862 50.9325 43.2214 51.4105 44.5122C50.0366 44.5122 48.7185 44.5122 47.4033 44.5122C47.1987 44.5122 47.1643 44.3852 47.1171 44.2426C46.9654 43.7919 46.7979 43.344 46.6634 42.8876C46.5876 42.628 46.4716 42.5196 46.1825 42.5225C44.6283 42.5368 43.0727 42.5339 41.517 42.5225C41.2823 42.5225 41.1664 42.591 41.0977 42.8163C40.9689 43.2371 40.8014 43.6478 40.6683 44.0686C40.5896 44.3253 40.4622 44.4209 40.1803 44.4166C39.0888 44.3966 37.9968 44.3966 36.9044 44.4166C36.5251 44.4252 36.4593 44.3424 36.5981 43.9887C37.3395 42.0689 38.0579 40.1378 38.7849 38.2137C38.8364 38.0711 38.8779 37.9285 38.928 37.7858L40.7885 32.8309C41.1003 32.157 41.3629 31.4616 41.5742 30.75C41.6744 30.5147 41.8419 30.4405 42.1066 30.4448C43.3074 30.4619 44.5081 30.4676 45.7088 30.4448C46.0924 30.4376 46.2813 30.5503 46.3471 30.9283C46.407 31.1443 46.49 31.3533 46.5947 31.5516ZM42.2769 39.3462H45.5085C44.989 37.492 44.2576 35.7277 43.8884 33.845C43.522 35.7291 42.7836 37.4906 42.2769 39.3462Z" fill="#FDFDFE"/>
<path d="M28.2369 30.7644C29.1404 30.4477 30.0554 30.1912 31.0221 30.1755C32.3292 30.1508 33.6256 30.4141 34.8187 30.9464C34.9295 31.0152 35.0431 31.0811 35.1539 31.1528C36.053 31.726 36.053 31.726 35.5323 32.6116C35.5261 32.6267 35.5222 32.6426 35.5207 32.6589C35.1683 33.159 34.8014 33.6505 34.4691 34.1621C34.2965 34.4258 34.1929 34.4888 33.9195 34.2424C33.5268 33.8827 33.0587 33.6147 32.5491 33.4575C32.0395 33.3004 31.5012 33.2581 30.9732 33.3338C30.3848 33.4026 30.0165 33.6792 29.9345 34.1062C29.8439 34.5719 30.0784 34.9474 30.6366 35.2369C31.0811 35.4661 31.5688 35.5793 32.0421 35.7327C33.4247 36.1855 34.7755 36.6928 35.6776 37.9309C37.2917 41.1752 35.4186 44.5027 31.7429 44.8652C29.5849 45.0773 27.5709 44.6632 25.797 43.3634C25.1683 42.9049 25.1727 42.8504 25.6316 42.2443C26.0143 41.7398 26.3854 41.224 26.7609 40.7138C27.1925 40.2108 27.2011 40.2094 27.7046 40.6622C28.1477 41.0643 28.6672 41.3737 29.2325 41.5722C29.9173 41.8101 30.6208 41.9046 31.3343 41.6954C31.799 41.5593 32.1227 41.2655 32.2061 40.7769C32.2594 40.5398 32.2358 40.292 32.1386 40.0692C32.0413 39.8465 31.8756 39.6602 31.6652 39.5373C31.3547 39.3454 31.0205 39.1941 30.6711 39.0873C29.9345 38.8394 29.1764 38.6474 28.4686 38.3121C27.3407 37.7776 26.4041 37.0611 26.0229 35.8029C25.8373 35.1896 25.9207 34.5619 25.9164 33.94C26.125 32.9985 26.5178 32.1573 27.2687 31.5182C27.5795 31.2545 27.9133 31.0152 28.2369 30.7644Z" fill="#FDFDFE"/>
</svg>
