<svg width="42" height="43" viewBox="0 0 42 43" fill="none" xmlns="http://www.w3.org/2000/svg">
<g clip-path="url(#clip0_243_163)">
<path d="M42 21.0845L37.3418 15.7582L37.9909 8.71361L31.0991 7.14815L27.4909 1.03906L21 3.82634L14.5091 1.03906L10.9009 7.12906L4.00909 8.67543L4.65818 15.7391L0 21.0845L4.65818 26.4109L4.00909 33.4745L10.9009 35.04L14.5091 41.13L21 38.3236L27.4909 41.1109L31.0991 35.0209L37.9909 33.4554L37.3418 26.4109L42 21.0845ZM17.3536 30.0954L10.0991 22.8218L12.9245 19.9963L17.3536 24.4445L28.5218 13.2382L31.3473 16.0636L17.3536 30.0954Z" fill="#22C55E"/>
</g>
<defs>
<clipPath id="clip0_243_163">
<rect width="42" height="42" fill="white" transform="translate(0 0.164062)"/>
</clipPath>
</defs>
</svg>
